<?xml version="1.0" standalone="no"?>
<!DOCTYPE svg PUBLIC "-//W3C//DTD SVG 20010904//EN"
 "http://www.w3.org/TR/2001/REC-SVG-20010904/DTD/svg10.dtd">
<svg version="1.0" xmlns="http://www.w3.org/2000/svg"
 width="810.000000pt" height="810.000000pt" viewBox="0 0 810.000000 810.000000"
 preserveAspectRatio="xMidYMid meet">
<metadata>
Created by potrace 1.11, written by Peter Selinger 2001-2013
</metadata>
<g transform="translate(0.000000,810.000000) scale(0.100000,-0.100000)"
fill="#000000" stroke="none">
<path d="M2427 7193 c-122 -120 -570 -560 -994 -977 -425 -417 -774 -758 -774
-759 -5 -7 -25 -2784 -20 -2793 6 -11 1247 -1278 1732 -1768 l216 -219 894 -8
c492 -4 1120 -9 1396 -10 l501 -3 764 749 c419 412 867 852 993 977 l230 227
11 1388 c6 763 8 1393 5 1399 -3 7 -441 455 -973 997 l-967 985 -93 6 c-51 3
-581 8 -1178 11 -597 3 -1183 8 -1303 11 l-218 7 -222 -220z m2080 141 l901
-7 314 -316 c301 -303 1292 -1312 1506 -1532 l102 -105 -10 -1070 c-5 -588
-10 -1204 -10 -1369 l0 -300 -982 -964 -981 -964 -331 7 c-182 3 -797 9 -1367
12 l-1036 7 -963 980 -963 980 7 441 c3 242 9 859 12 1369 l7 928 480 472
c264 260 703 692 976 961 l496 488 470 -6 c259 -3 876 -9 1372 -12z"/>
<path d="M3998 7024 c-4 -3 -132 -65 -285 -138 -153 -73 -424 -204 -603 -291
-370 -179 -882 -424 -1205 -575 -121 -57 -223 -106 -227 -109 -7 -6 -40 -146
-377 -1601 -94 -404 -182 -780 -195 -834 l-23 -100 519 -655 c285 -361 648
-818 806 -1017 l287 -361 665 -6 c366 -4 954 -7 1307 -7 l641 0 84 103 c329
401 1532 1915 1535 1932 2 11 -77 380 -177 820 -99 440 -226 1000 -281 1245
-55 245 -102 452 -105 461 -2 9 -83 52 -182 99 -341 161 -861 409 -1327 635
-464 224 -842 405 -848 405 -2 0 -6 -3 -9 -6z m826 -448 c441 -211 954 -457
1141 -546 187 -89 342 -164 344 -166 2 -2 57 -241 123 -531 65 -290 168 -744
227 -1008 60 -264 133 -586 162 -716 l53 -236 -797 -997 -797 -996 -652 0
c-359 0 -934 3 -1277 7 l-624 6 -171 216 c-95 119 -327 412 -516 651 -189 239
-467 590 -617 779 -150 189 -273 350 -273 358 0 9 58 266 129 572 363 1561
413 1772 429 1834 l17 68 310 148 c171 81 438 209 595 284 157 75 528 253 825
396 297 143 546 260 554 260 8 1 375 -172 815 -383z"/>
<path d="M2800 6105 c-15 -18 -258 -438 -658 -1135 -162 -283 -348 -606 -413
-716 -66 -111 -119 -210 -119 -219 0 -10 26 -63 58 -119 32 -56 216 -375 409
-711 193 -335 393 -682 445 -770 52 -88 136 -233 188 -323 l93 -162 1207 0
1207 0 93 163 c52 89 136 234 188 322 52 88 252 435 445 770 193 336 377 655
409 711 32 56 58 109 58 119 0 9 -53 108 -119 219 -65 110 -251 433 -413 716
-400 697 -643 1117 -658 1135 -11 13 -164 15 -1210 15 -1046 0 -1199 -2 -1210
-15z m2550 -337 c95 -167 246 -427 335 -578 89 -151 275 -474 414 -717 l253
-442 -86 -148 c-48 -81 -311 -537 -585 -1013 l-498 -865 -1173 0 -1173 0 -498
865 c-274 476 -537 932 -585 1013 l-86 148 253 442 c139 243 325 566 414 717
89 151 240 411 335 578 l175 302 1165 0 1165 0 175 -302z"/>
<path d="M3580 5432 c-234 -169 -605 -437 -825 -596 -220 -159 -406 -294 -413
-301 -10 -9 -1 -44 42 -176 30 -90 175 -531 322 -979 147 -448 272 -818 278
-822 6 -4 474 -7 1039 -5 l1029 2 92 285 c51 157 195 596 320 977 124 380 226
697 226 705 -1 7 -15 22 -33 34 -30 19 -380 271 -1251 902 -208 150 -384 276
-390 278 -6 2 -202 -134 -436 -304z m607 115 c92 -68 303 -220 468 -338 635
-456 970 -702 969 -713 -1 -6 -100 -315 -222 -686 -121 -371 -255 -783 -297
-915 -42 -132 -80 -250 -85 -263 l-10 -22 -997 2 -998 3 -78 240 c-43 132
-182 554 -308 939 -126 384 -229 702 -229 706 0 7 453 338 1125 823 127 91
284 206 350 256 66 49 125 90 132 90 7 1 88 -54 180 -122z"/>
<path d="M3162 4738 c-17 -17 -17 -1669 0 -1686 17 -17 1679 -17 1696 0 17 17
17 1669 0 1686 -17 17 -1679 17 -1696 0z m1648 -843 l0 -795 -800 0 -800 0 0
795 0 795 800 0 800 0 0 -795z"/>
<path d="M3988 4403 c-34 -41 -518 -892 -518 -911 l0 -22 540 0 c533 0 540 0
540 20 0 17 -429 774 -506 893 -27 42 -35 44 -56 20z m83 -175 c28 -51 128
-225 221 -386 93 -162 172 -300 175 -308 4 -12 -61 -14 -456 -14 -254 0 -461
3 -461 6 0 3 76 137 168 297 93 161 195 338 226 395 32 56 62 102 66 102 5 0
32 -42 61 -92z"/>
</g>
</svg>
